<svg xmlns="http://www.w3.org/2000/svg" width="760" height="440" font-family="system-ui">
<text x="380" y="22" text-anchor="middle" font-size="15" font-weight="bold">Pipeline runtime — CPU-throttle PROXY (main thread), Apple M4</text>
<text x="380" y="40" text-anchor="middle" font-size="11" fill="#555">n=12/cond · stacked = per-stage mean · whisker = ±std · real app (worker) @1x = 1696 ms · peak heap 192.2 MB</text>
<text x="380" y="55" text-anchor="middle" font-size="10" fill="#b45309">4x/6x = CPU-slowdown proxy, NOT a physical device (CDP throttling does not reach Web Workers)</text>
<line x1="64" y1="64" x2="64" y2="376" stroke="#999"/>
<line x1="64" y1="376" x2="740" y2="376" stroke="#999"/>
<rect x="120.33333333333334" y="370.4346098265024" width="112.66666666666667" height="5.565390173497563" fill="#9ca3af"/><rect x="120.33333333333334" y="339.7683920140801" width="112.66666666666667" height="30.666217812422293" fill="#2563eb"/><rect x="120.33333333333334" y="336.7971952201094" width="112.66666666666667" height="2.9711967939707082" fill="#16a34a"/><rect x="120.33333333333334" y="334.300775094768" width="112.66666666666667" height="2.4964201253413973" fill="#f59e0b"/><rect x="120.33333333333334" y="324.07856016652806" width="112.66666666666667" height="10.222214928239978" fill="#dc2626"/><line x1="176.66666666666669" y1="323.61745648885574" x2="176.66666666666669" y2="324.5396638442004" stroke="#111" stroke-width="1.5"/><text x="176.66666666666669" y="317.61745648885574" text-anchor="middle" font-size="12" font-weight="bold">1013±9 ms</text><text x="176.66666666666669" y="394" text-anchor="middle" font-size="12">1x CPU</text><rect x="345.6666666666667" y="353.55442065267636" width="112.66666666666667" height="22.44557934732366" fill="#9ca3af"/><rect x="345.6666666666667" y="232.0948502354366" width="112.66666666666667" height="121.45957041723975" fill="#2563eb"/><rect x="345.6666666666667" y="220.65537966268124" width="112.66666666666667" height="11.439470572755383" fill="#16a34a"/><rect x="345.6666666666667" y="211.2802482922373" width="112.66666666666667" height="9.375131370443942" fill="#f59e0b"/><rect x="345.6666666666667" y="173.42577508878762" width="112.66666666666667" height="37.854473203449686" fill="#dc2626"/><line x1="402" y1="172.60983532997597" x2="402" y2="174.2417148475992" stroke="#111" stroke-width="1.5"/><text x="402" y="166.60983532997597" text-anchor="middle" font-size="12" font-weight="bold">3954±16 ms</text><text x="402" y="394" text-anchor="middle" font-size="12">4x CPU</text><rect x="571" y="341.79686678833724" width="112.66666666666667" height="34.20313321166274" fill="#9ca3af"/><rect x="571" y="158.62059905010997" width="112.66666666666667" height="183.17626773822727" fill="#2563eb"/><rect x="571" y="141.17426431500363" width="112.66666666666667" height="17.44633473510634" fill="#16a34a"/><rect x="571" y="126.77213609495433" width="112.66666666666667" height="14.40212822004929" fill="#f59e0b"/><rect x="571" y="69.02443509827307" width="112.66666666666667" height="57.74770099668125" fill="#dc2626"/><line x1="627.3333333333334" y1="65.79106180467991" x2="627.3333333333334" y2="72.25780839186629" stroke="#111" stroke-width="1.5"/><text x="627.3333333333334" y="59.79106180467991" text-anchor="middle" font-size="12" font-weight="bold">5992±63 ms</text><text x="627.3333333333334" y="394" text-anchor="middle" font-size="12">6x CPU</text><rect x="64" y="422" width="12" height="12" fill="#9ca3af"/><text x="80" y="432" font-size="11">parse</text><rect x="204" y="422" width="12" height="12" fill="#2563eb"/><text x="220" y="432" font-size="11">filter</text><rect x="344" y="422" width="12" height="12" fill="#16a34a"/><text x="360" y="432" font-size="11">epoch</text><rect x="484" y="422" width="12" height="12" fill="#f59e0b"/><text x="500" y="432" font-size="11">csp+lda</text><rect x="624" y="422" width="12" height="12" fill="#dc2626"/><text x="640" y="432" font-size="11">cv</text>
</svg>